<?xml version="1.0" encoding="utf-8"?>
<svg width="128px" height="128px" viewBox="0 0 128 128" version="1.1" xmlns:xlink="http://www.w3.org/1999/xlink" xmlns="http://www.w3.org/2000/svg">
  <defs>
    <path d="M128 0L128 0L128 128L0 128L0 0L128 0Z" id="path_1" />
    <clipPath id="clip_1">
      <use xlink:href="#path_1" />
    </clipPath>
  </defs>
  <g id="Icon 128" clip-path="url(#clip_1)">
    <path d="M128 0L128 0L128 128L0 128L0 0L128 0Z" id="Icon-128" fill="none" stroke="none" />
    <path d="M128 8C128 3.58112 124.419 0 120 0L8 0C3.58112 0 0 3.58112 0 8L0 120C0 124.419 3.58112 128 8 128L120 128C124.419 128 128 124.419 128 120L128 8L128 8ZM8 5L120 5C122 5 123 6 123 8L123 120C123 122 122 123 120 123L8 123C6 123 5 122 5 120L5 8C5 6 6 5 8 5L8 5Z" id="Vector" fill="#6A737D" fill-rule="evenodd" stroke="none" />
    <path d="M17 79.5932L17 76.0889L30.1605 61.6825C31.7049 59.9952 32.9769 58.5254 33.9762 57.2729C34.9756 56.0205 35.7186 54.8394 36.2053 53.7297C36.692 52.6201 36.9354 51.4552 36.9354 50.2352C36.9354 48.1327 36.2053 46.4649 34.7452 45.2319C33.2851 43.9989 31.4713 43.3824 29.3039 43.3824C26.9936 43.3824 25.1572 44.0735 23.7944 45.4558C22.4316 46.838 21.7502 48.6648 21.7502 50.9361L17.1557 50.9361C17.1557 48.5999 17.6944 46.5492 18.7716 44.7841C19.8488 43.019 21.3187 41.6433 23.1811 40.6569C25.0436 39.6705 27.1364 39.1773 29.4596 39.1773C31.7958 39.1773 33.8659 39.6705 35.6699 40.6569C37.474 41.6433 38.8887 42.9736 39.914 44.6479C40.9393 46.3221 41.452 48.1846 41.452 50.2352C41.452 51.7018 41.1892 53.1327 40.6635 54.5279C40.1379 55.9232 39.2294 57.4741 37.938 59.1808C36.6466 60.8875 34.8588 62.9674 32.5745 65.4204L23.6192 74.9987L23.6192 75.3102L42.1528 75.3102L42.1528 79.5932L17 79.5932ZM49.5118 79.5932L49.5118 39.7224L65.2421 39.7224C68.2661 39.7224 70.8424 40.2967 72.9709 41.4453C75.0994 42.594 76.725 44.1839 77.8477 46.215C78.9703 48.2462 79.5317 50.5856 79.5317 53.2333C79.5317 55.881 78.9606 58.2139 77.8185 60.2321C76.6763 62.2503 75.0248 63.8272 72.8638 64.9629C70.7029 66.0985 68.0909 66.6663 65.0279 66.6663L57.9415 66.6663L57.9415 79.5932L49.5118 79.5932ZM57.9415 59.9109L63.6651 59.9109C66.0792 59.9109 67.88 59.2911 69.0675 58.0517C70.2551 56.8122 70.8489 55.2061 70.8489 53.2333C70.8489 51.2476 70.2551 49.6479 69.0675 48.4344C67.88 47.2209 66.0662 46.6141 63.6262 46.6141L57.9415 46.6141L57.9415 59.9109ZM89.9861 90.8068C88.9348 90.8068 87.9516 90.7257 87.0366 90.5635C86.1216 90.4012 85.3656 90.1968 84.7686 89.9502L86.6375 83.7594C88.1041 84.2006 89.3501 84.3207 90.3754 84.1195C91.4007 83.9183 92.186 83.1169 92.7311 81.7152L93.2178 80.4498L82.4908 49.6901L91.2125 49.6901L97.4034 71.6502L97.7149 71.6502L103.964 49.6901L112.744 49.6901L101.122 82.8249C100.278 85.2389 98.9836 87.1728 97.2379 88.6264C95.4923 90.08 93.075 90.8068 89.9861 90.8068L89.9861 90.8068Z" id="Path" fill="#6A737D" stroke="none" />
  </g>
</svg>